<svg width="121" height="24" viewBox="0 0 121 24" fill="none" xmlns="http://www.w3.org/2000/svg">
<path d="M35.78 17.213C35.1547 17.213 34.6087 17.0683 34.142 16.779C33.6753 16.4803 33.3113 16.0603 33.05 15.519C32.798 14.9776 32.672 14.329 32.672 13.573C32.672 12.8076 32.798 12.1543 33.05 11.613C33.3113 11.0716 33.6753 10.6563 34.142 10.367C34.6087 10.0776 35.1547 9.93297 35.78 9.93297C36.4147 9.93297 36.9607 10.0963 37.418 10.423C37.8847 10.7403 38.1927 11.1743 38.342 11.725H38.174L38.328 10.059H39.42C39.392 10.3296 39.364 10.605 39.336 10.885C39.3173 11.1556 39.308 11.4216 39.308 11.683V17.087H38.174V15.435H38.328C38.1787 15.9856 37.8707 16.4196 37.404 16.737C36.9373 17.0543 36.396 17.213 35.78 17.213ZM36.004 16.289C36.676 16.289 37.208 16.0603 37.6 15.603C37.992 15.1363 38.188 14.4596 38.188 13.573C38.188 12.677 37.992 12.0003 37.6 11.543C37.208 11.0763 36.676 10.843 36.004 10.843C35.3413 10.843 34.8093 11.0763 34.408 11.543C34.016 12.0003 33.82 12.677 33.82 13.573C33.82 14.4596 34.016 15.1363 34.408 15.603C34.8093 16.0603 35.3413 16.289 36.004 16.289ZM41.7505 17.087V11.683C41.7505 11.4216 41.7365 11.1556 41.7085 10.885C41.6899 10.605 41.6665 10.3296 41.6385 10.059H42.7305L42.8705 11.599H42.7025C42.9079 11.0576 43.2345 10.647 43.6825 10.367C44.1399 10.0776 44.6672 9.93297 45.2645 9.93297C46.0952 9.93297 46.7205 10.157 47.1405 10.605C47.5699 11.0436 47.7845 11.739 47.7845 12.691V17.087H46.6505V12.761C46.6505 12.0983 46.5152 11.6176 46.2445 11.319C45.9832 11.011 45.5725 10.857 45.0125 10.857C44.3592 10.857 43.8412 11.0576 43.4585 11.459C43.0759 11.8603 42.8845 12.397 42.8845 13.069V17.087H41.7505ZM53.2977 20.209C52.691 20.209 52.131 20.1343 51.6177 19.985C51.1043 19.8356 50.6423 19.607 50.2317 19.299L50.5677 18.445C50.857 18.6503 51.1417 18.8136 51.4217 18.935C51.7017 19.0563 51.991 19.145 52.2897 19.201C52.5883 19.2663 52.9057 19.299 53.2417 19.299C53.9323 19.299 54.455 19.117 54.8097 18.753C55.1643 18.389 55.3417 17.871 55.3417 17.199V15.141H55.4817C55.3323 15.6916 55.0243 16.1303 54.5577 16.457C54.091 16.7743 53.545 16.933 52.9197 16.933C52.2757 16.933 51.7157 16.793 51.2397 16.513C50.773 16.2236 50.409 15.8176 50.1477 15.295C49.8957 14.763 49.7697 14.1376 49.7697 13.419C49.7697 12.7096 49.8957 12.0936 50.1477 11.571C50.409 11.0483 50.773 10.647 51.2397 10.367C51.7157 10.0776 52.2757 9.93297 52.9197 9.93297C53.5543 9.93297 54.1003 10.0916 54.5577 10.409C55.0243 10.7263 55.3323 11.165 55.4817 11.725L55.3417 11.585L55.4677 10.059H56.5737C56.5363 10.3296 56.5083 10.605 56.4897 10.885C56.471 11.1556 56.4617 11.4216 56.4617 11.683V17.045C56.4617 18.0903 56.191 18.879 55.6497 19.411C55.1177 19.943 54.3337 20.209 53.2977 20.209ZM53.1297 16.009C53.811 16.009 54.3477 15.785 54.7397 15.337C55.1317 14.8796 55.3277 14.2403 55.3277 13.419C55.3277 12.5976 55.1317 11.963 54.7397 11.515C54.3477 11.067 53.811 10.843 53.1297 10.843C52.4577 10.843 51.921 11.067 51.5197 11.515C51.1183 11.963 50.9177 12.5976 50.9177 13.419C50.9177 14.2403 51.1183 14.8796 51.5197 15.337C51.921 15.785 52.4577 16.009 53.1297 16.009ZM61.3672 17.213C60.5365 17.213 59.9065 16.9843 59.4772 16.527C59.0572 16.0696 58.8472 15.3696 58.8472 14.427V10.059H59.9812V14.399C59.9812 15.043 60.1119 15.519 60.3732 15.827C60.6345 16.1256 61.0405 16.275 61.5912 16.275C62.2072 16.275 62.7019 16.0743 63.0752 15.673C63.4485 15.2716 63.6352 14.735 63.6352 14.063V10.059H64.7692V17.087H63.6632V15.505H63.8452C63.6492 16.0463 63.3319 16.4663 62.8932 16.765C62.4639 17.0636 61.9552 17.213 61.3672 17.213ZM67.2193 17.087V6.78297H68.3533V17.087H67.2193ZM73.4792 17.213C72.8539 17.213 72.3079 17.0683 71.8412 16.779C71.3746 16.4803 71.0106 16.0603 70.7492 15.519C70.4972 14.9776 70.3712 14.329 70.3712 13.573C70.3712 12.8076 70.4972 12.1543 70.7492 11.613C71.0106 11.0716 71.3746 10.6563 71.8412 10.367C72.3079 10.0776 72.8539 9.93297 73.4792 9.93297C74.1139 9.93297 74.6599 10.0963 75.1172 10.423C75.5839 10.7403 75.8919 11.1743 76.0412 11.725H75.8732L76.0272 10.059H77.1192C77.0912 10.3296 77.0632 10.605 77.0352 10.885C77.0166 11.1556 77.0072 11.4216 77.0072 11.683V17.087H75.8732V15.435H76.0272C75.8779 15.9856 75.5699 16.4196 75.1032 16.737C74.6366 17.0543 74.0952 17.213 73.4792 17.213ZM73.7032 16.289C74.3752 16.289 74.9072 16.0603 75.2992 15.603C75.6912 15.1363 75.8872 14.4596 75.8872 13.573C75.8872 12.677 75.6912 12.0003 75.2992 11.543C74.9072 11.0763 74.3752 10.843 73.7032 10.843C73.0406 10.843 72.5086 11.0763 72.1072 11.543C71.7152 12.0003 71.5192 12.677 71.5192 13.573C71.5192 14.4596 71.7152 15.1363 72.1072 15.603C72.5086 16.0603 73.0406 16.289 73.7032 16.289ZM79.4218 17.087V11.753C79.4218 11.473 79.4124 11.1883 79.3938 10.899C79.3844 10.6096 79.3658 10.3296 79.3378 10.059H80.4298L80.5698 11.767L80.3738 11.781C80.4671 11.361 80.6304 11.0156 80.8638 10.745C81.0971 10.4743 81.3724 10.2736 81.6898 10.143C82.0071 10.003 82.3384 9.93297 82.6838 9.93297C82.8238 9.93297 82.9451 9.93764 83.0478 9.94697C83.1598 9.95631 83.2624 9.97964 83.3558 10.017L83.3418 11.025C83.2018 10.9783 83.0711 10.9503 82.9498 10.941C82.8378 10.9223 82.7071 10.913 82.5578 10.913C82.1471 10.913 81.7878 11.011 81.4798 11.207C81.1811 11.403 80.9524 11.655 80.7938 11.963C80.6444 12.271 80.5698 12.5976 80.5698 12.943V17.087H79.4218Z" fill="#640909"/>
<path d="M84.6877 17.087V7.21697H89.1677C90.2784 7.21697 91.137 7.48297 91.7437 8.01498C92.3504 8.53764 92.6537 9.27031 92.6537 10.213C92.6537 10.829 92.5137 11.361 92.2337 11.809C91.963 12.2476 91.571 12.5883 91.0577 12.831C90.5537 13.0643 89.947 13.181 89.2377 13.181L89.4057 12.873H89.9797C90.381 12.873 90.7357 12.9803 91.0437 13.195C91.361 13.4096 91.6224 13.7223 91.8277 14.133L93.2977 17.087H90.8897L89.3637 13.909C89.2517 13.6383 89.0744 13.461 88.8317 13.377C88.5984 13.2836 88.3277 13.237 88.0197 13.237H86.8717V17.087H84.6877ZM86.8717 11.669H88.7897C89.359 11.669 89.793 11.5523 90.0917 11.319C90.3904 11.0856 90.5397 10.7403 90.5397 10.283C90.5397 9.82564 90.3904 9.48497 90.0917 9.26097C89.793 9.02764 89.359 8.91097 88.7897 8.91097H86.8717V11.669ZM97.3721 17.241C96.7561 17.241 96.2148 17.0916 95.7481 16.793C95.2814 16.4943 94.9174 16.0696 94.6561 15.519C94.3948 14.9683 94.2641 14.3056 94.2641 13.531C94.2641 12.7656 94.3948 12.1076 94.6561 11.557C94.9174 11.0063 95.2814 10.5863 95.7481 10.297C96.2148 9.99831 96.7561 9.84897 97.3721 9.84897C97.9414 9.84897 98.4501 9.98897 98.8981 10.269C99.3554 10.5396 99.6541 10.9083 99.7941 11.375H99.6401L99.8081 9.98897H101.838C101.81 10.297 101.782 10.6096 101.754 10.927C101.735 11.235 101.726 11.5383 101.726 11.837V17.087H99.6261L99.6121 15.757H99.7801C99.6308 16.205 99.3321 16.5643 98.8841 16.835C98.4361 17.1056 97.9321 17.241 97.3721 17.241ZM98.0161 15.645C98.5014 15.645 98.8934 15.4723 99.1921 15.127C99.4908 14.7816 99.6401 14.2496 99.6401 13.531C99.6401 12.8123 99.4908 12.285 99.1921 11.949C98.8934 11.613 98.5014 11.445 98.0161 11.445C97.5308 11.445 97.1388 11.613 96.8401 11.949C96.5414 12.285 96.3921 12.8123 96.3921 13.531C96.3921 14.2496 96.5368 14.7816 96.8261 15.127C97.1248 15.4723 97.5214 15.645 98.0161 15.645ZM103.71 17.087V11.837C103.71 11.5383 103.7 11.235 103.682 10.927C103.663 10.6096 103.635 10.297 103.598 9.98897H105.628L105.782 11.305H105.614C105.847 10.8383 106.178 10.479 106.608 10.227C107.037 9.97497 107.536 9.84897 108.106 9.84897C108.936 9.84897 109.557 10.0916 109.968 10.577C110.388 11.053 110.598 11.795 110.598 12.803V17.087H108.484V12.901C108.484 12.3876 108.39 12.0236 108.204 11.809C108.017 11.5943 107.737 11.487 107.364 11.487C106.897 11.487 106.524 11.6363 106.244 11.935C105.964 12.2243 105.824 12.6163 105.824 13.111V17.087H103.71ZM112.546 17.087V6.78297H114.66V12.943H114.688L117.32 9.98897H119.84L116.438 13.769V12.999L120.022 17.087H117.432L114.688 14.007H114.66V17.087H112.546Z" fill="#CB313F"/>
<g clip-path="url(#clip0_2_91)">
<path d="M9.5 0L0 3.60587L1.44902 16.9742L9.5 21.7194L17.551 16.9737L19 3.60587L9.5 0Z" fill="#DD0031"/>
<path d="M9.5 0V13.4009V21.7194L17.551 16.9737L19 3.60587L9.5 0Z" fill="#C3002F"/>
<path d="M9.49999 2.3999L3.56122 16.5719H5.7755L6.96939 13.4012H12.0102L13.204 16.5719H15.4183L9.49999 2.3999ZM11.2347 11.4457H7.76531L9.49999 7.00407L11.2347 11.4457Z" fill="white"/>
<path d="M9.43615 24L1.61096 19.3875L1.46039 17.9978L9.43221 22.6968L17.4126 17.9927L17.2621 19.3875L9.43615 24Z" fill="#DD0031"/>
</g>
<defs>
<clipPath id="clip0_2_91">
<rect width="19" height="24" fill="white"/>
</clipPath>
</defs>
</svg>
