<svg width="25" height="25" viewBox="0 0 25 25" fill="none" xmlns="http://www.w3.org/2000/svg">
<path d="M23.2143 0H1.78571C1.31211 0 0.85791 0.16462 0.523024 0.457646C0.188137 0.750671 0 1.1481 0 1.5625V10.9375C0 11.3519 0.188137 11.7493 0.523024 12.0424C0.85791 12.3354 1.31211 12.5 1.78571 12.5H23.2143C23.6879 12.5 24.1421 12.3354 24.477 12.0424C24.8119 11.7493 25 11.3519 25 10.9375V1.5625C25 1.1481 24.8119 0.750671 24.477 0.457646C24.1421 0.16462 23.6879 0 23.2143 0V0Z" fill="white" fill-opacity="0.5"/>
<path d="M24.7619 15.8334H0V18.3334H24.7619V15.8334Z" fill="white" fill-opacity="0.5"/>
<path d="M24.7619 21.6667H0V25H24.7619V21.6667Z" fill="white" fill-opacity="0.5"/>
</svg>
