<svg width="25" height="25" viewBox="0 0 25 25" fill="none" xmlns="http://www.w3.org/2000/svg">
<path d="M23.3333 25H1.66667C1.22464 25 0.80074 24.8244 0.48818 24.5118C0.175619 24.1993 0 23.7754 0 23.3333V1.66667C0 1.22464 0.175619 0.800715 0.48818 0.488154C0.80074 0.175593 1.22464 0 1.66667 0H23.3333C23.7754 0 24.1993 0.175593 24.5118 0.488154C24.8244 0.800715 25 1.22464 25 1.66667V23.3333C25 23.7754 24.8244 24.1993 24.5118 24.5118C24.1993 24.8244 23.7754 25 23.3333 25ZM14.1667 14.1667V20.8333H20.8333V14.1667H14.1667ZM4.16667 14.1667V20.8333H10.8333V14.1667H4.16667ZM14.1667 4.16667V10.8333H20.8333V4.16667H14.1667ZM4.16667 4.16667V10.8333H10.8333V4.16667H4.16667Z" fill="white" fill-opacity="0.8"/>
</svg>
