<svg width="19" height="24" viewBox="0 0 19 24" fill="none" xmlns="http://www.w3.org/2000/svg">
<path d="M9.5 0L0 3.60587L1.44902 16.9742L9.5 21.7194L17.551 16.9737L19 3.60587L9.5 0Z" fill="#DD0031"/>
<path d="M9.5 0V13.4009V21.7194L17.551 16.9737L19 3.60587L9.5 0Z" fill="#C3002F"/>
<path d="M9.49999 2.3999L3.56122 16.5719H5.7755L6.96939 13.4012H12.0102L13.204 16.5719H15.4183L9.49999 2.3999ZM11.2347 11.4457H7.76531L9.49999 7.00407L11.2347 11.4457Z" fill="white"/>
<path d="M9.43615 24L1.61096 19.3875L1.46039 17.9978L9.43221 22.6968L17.4126 17.9927L17.2621 19.3875L9.43615 24Z" fill="#DD0031"/>
</svg>
